<svg width="368" height="415" viewBox="0 0 368 415" fill="none" xmlns="http://www.w3.org/2000/svg">
<path d="M98.3111 327.368C100.891 327.368 102.871 325.388 102.871 322.808C102.871 321.008 101.671 319.988 99.6311 319.988H80.3111C79.4111 319.988 78.9311 320.408 78.9311 321.368V325.568C78.9311 326.768 79.7111 327.368 81.1511 327.368H98.3111ZM69.4511 310.688C68.4311 310.568 67.9511 310.088 67.9511 309.068V305.828C67.9511 304.808 68.5511 304.328 69.5711 304.388C74.1311 304.688 82.0511 304.928 88.0511 304.988C87.5111 304.688 87.1511 304.148 87.1511 303.368V300.488C87.1511 299.468 87.7511 298.868 88.7111 298.868H92.4911C93.4511 298.868 94.0511 299.468 94.0511 300.488V303.428C94.0511 304.388 94.5311 304.868 95.5511 304.928C100.231 305.108 107.251 304.868 111.631 304.448C112.651 304.328 113.251 304.868 113.251 305.888V309.128C113.251 310.148 112.831 310.628 111.751 310.748C107.431 311.228 98.9111 311.348 90.5111 311.288C79.5311 311.228 73.0511 311.108 69.4511 310.688ZM90.8711 292.568C88.2311 297.728 81.1511 301.148 73.8311 300.788C72.7511 300.728 72.3311 300.308 72.3311 299.288V295.868C72.3311 294.908 72.7511 294.488 73.8311 294.488C81.8711 294.488 87.3911 290.648 87.3911 284.888V283.028C87.3911 282.008 87.9911 281.408 88.9511 281.408H92.7311C93.6911 281.408 94.2911 282.008 94.2911 283.028V284.888C94.2911 290.648 99.8111 294.488 107.851 294.488C108.931 294.488 109.351 294.908 109.351 295.868V299.288C109.351 300.308 108.931 300.728 107.851 300.788C100.531 301.148 93.4511 297.728 90.8711 292.568ZM105.391 327.248H109.111C110.131 327.248 110.611 327.728 110.611 328.748V332.048C110.611 333.068 110.131 333.548 109.111 333.548H78.0911C74.2511 333.548 72.0311 331.688 72.0311 328.388V316.508C72.0311 314.708 72.8711 313.808 74.6711 313.808H103.051C107.131 313.808 109.771 316.028 109.771 319.688C109.771 322.808 108.031 325.748 105.391 327.248ZM121.658 327.488C120.578 327.308 120.158 326.828 120.158 325.868V322.568C120.158 321.548 120.758 321.008 121.778 321.128C126.098 321.608 134.198 322.148 140.858 322.268C139.958 321.848 139.358 320.888 139.358 319.688V314.048C128.018 313.628 124.238 310.868 124.238 303.608C124.238 296.168 129.158 293.468 142.718 293.468C149.498 293.468 155.198 293.528 158.858 293.828C159.758 293.888 160.178 294.368 160.178 295.268V298.808C160.178 299.708 159.638 300.248 158.738 300.188C153.038 299.768 147.398 299.828 142.238 299.828C133.658 299.828 131.138 300.668 131.138 303.608C131.138 306.788 133.838 307.748 142.718 307.748C149.738 307.748 154.958 307.448 159.218 306.908C160.118 306.788 160.778 307.268 160.838 308.168L161.138 311.708C161.198 312.608 160.718 313.148 159.758 313.268C155.738 313.748 151.598 313.988 146.258 314.108V320.228C146.258 321.548 146.918 322.088 148.358 322.088C153.518 322.088 159.758 321.728 163.838 321.188C164.858 321.068 165.458 321.608 165.458 322.628V325.928C165.458 326.948 165.038 327.368 163.958 327.548C159.878 328.208 151.898 328.568 142.718 328.568C133.178 328.568 126.158 328.208 121.658 327.488ZM126.218 289.568C125.198 289.568 124.718 289.088 124.718 288.068V284.768C124.718 283.748 125.198 283.268 126.218 283.268H158.678C159.698 283.268 160.178 283.748 160.178 284.768V288.068C160.178 289.088 159.698 289.568 158.678 289.568H126.218ZM199.305 306.728C196.365 307.928 190.725 308.888 186.045 308.888C175.965 308.888 172.125 306.548 172.125 300.188C172.125 293.828 176.145 291.548 187.305 291.548C190.305 291.548 191.745 290.888 191.745 289.448C191.745 288.008 190.485 287.588 186.945 287.588C184.605 287.588 180.165 287.828 175.485 288.428C174.465 288.548 173.925 288.128 173.925 287.108V283.808C173.925 282.848 174.285 282.428 175.365 282.248C179.385 281.588 182.985 281.408 188.205 281.468C195.825 281.528 198.645 283.028 198.645 286.868C198.645 289.268 197.625 291.008 195.465 292.208H196.845C197.745 292.208 198.165 292.628 198.165 293.528V296.408C198.165 297.248 197.745 297.728 196.845 297.728C193.965 297.668 191.385 297.668 189.165 297.668C181.305 297.668 179.025 298.208 179.025 300.308C179.025 302.228 180.825 302.708 187.425 302.708C190.365 302.708 194.685 301.928 197.685 300.788C197.985 300.668 198.225 300.608 198.405 300.608C198.945 300.608 199.305 300.968 199.485 301.628L200.325 304.808C200.625 305.828 200.325 306.308 199.305 306.728ZM182.505 323.408C182.505 326.468 185.745 327.908 195.225 327.908C204.705 327.908 207.945 326.468 207.945 323.408C207.945 320.348 204.705 318.908 195.225 318.908C185.745 318.908 182.505 320.348 182.505 323.408ZM213.525 308.228C213.525 309.248 212.925 309.848 211.965 309.848H208.185C207.225 309.848 206.625 309.248 206.625 308.228V281.708C206.625 280.688 207.225 280.088 208.185 280.088H211.965C212.925 280.088 213.525 280.688 213.525 281.708V308.228ZM175.605 323.408C175.605 315.908 182.145 312.608 195.225 312.608C208.305 312.608 214.845 315.908 214.845 323.408C214.845 330.908 208.305 334.208 195.225 334.208C182.145 334.208 175.605 330.908 175.605 323.408Z" fill="url(#paint0_linear_30_5)"/>
<path d="M199.471 159.848C199.471 159.848 176.17 161.911 173.461 155.596C170.752 149.281 218.471 69.3482 218.471 69.3482" stroke="#FDC1C5" stroke-width="8.31741"/>
<path d="M273.878 197.85C273.878 197.85 241.114 212.726 218.622 213.43C201.437 213.968 203.71 168.299 199.734 154.988" stroke="#FDC1C5" stroke-width="8.31741"/>
<path d="M275.971 193.348L283.625 241.121L325.674 219.17" stroke="#FDC1C5" stroke-width="8.31741" stroke-linejoin="round"/>
<circle cx="59.7738" cy="165.337" r="6.09943" fill="#AEEAF3" stroke="#AEEAF3" stroke-width="0.277247"/>
<circle cx="224.459" cy="116.819" r="6.09943" fill="#FDC1C5" stroke="#FDC1C5" stroke-width="0.277247"/>
<path d="M55.6151 219.677C59.3161 224.107 63.656 226.121 73.9134 228.688C82.9335 230.946 97.3825 224.674 97.3825 224.674" stroke="#AEEAF3" stroke-width="8.31741"/>
<path d="M203.106 184.157C208.33 186.612 213.114 186.607 223.497 184.607C232.628 182.849 243.083 171.067 243.083 171.067" stroke="#FDC1C5" stroke-width="8.31741"/>
<path d="M323.851 223.697C323.851 223.697 331.773 260.343 325.471 278.848C324.279 282.348 318.971 309.348 290.38 318.762C269.64 325.591 300.13 344.265 330.597 363.724C348.174 374.95 263.505 369.975 242.971 374.848M30.9237 319.722C28.9711 316.348 17.2938 314.04 11.9711 306.848C5.31854 297.859 2.58113 289.505 5.97106 278.848C9.75675 266.947 30.9237 264.348 30.9238 258.848" stroke="url(#paint1_linear_30_5)" stroke-width="8.31741" stroke-linejoin="round"/>
<path d="M86.9099 192.938C86.9099 192.938 111.481 191.052 113.52 184.406C115.559 177.759 29.6925 112.799 29.6925 112.799" stroke="#AEEAF3" stroke-width="8.31741"/>
<path d="M26.6428 262.235C26.6428 262.235 66.5436 263.492 90.6045 254.843C108.988 248.234 90.5846 203.494 90.1321 188.525" stroke="#AEEAF3" stroke-width="8.31741"/>
<path d="M29.6417 115.878C29.6417 115.878 37.0263 82.7434 60.471 69.6498C83.4772 56.8011 119.216 63.9301 119.216 63.9301C119.216 63.9301 144.785 38.9777 171.471 43.8483C194.727 48.0929 215.455 69.6498 215.455 69.6498C215.455 69.6498 249.75 57.2704 273.971 75.8482C296.791 93.3513 299.183 125.521 299.183 125.521C299.183 125.521 322.388 134.468 332.471 160.348C343.664 189.076 324.642 222.878 324.642 222.878" stroke="url(#paint2_linear_30_5)" stroke-width="8.32" stroke-linejoin="round"/>
<path d="M30.9711 318.348C30.9711 318.348 34.1615 354.556 53.4711 368.859C76.3794 385.828 123.971 379.348 123.971 379.348C123.971 379.348 158.317 402.239 183.471 402.348C212.915 402.476 244.971 373.348 244.971 373.348" stroke="url(#paint3_linear_30_5)" stroke-width="8.32"/>
<defs>
<linearGradient id="paint0_linear_30_5" x1="141.971" y1="275.348" x2="141.971" y2="344.348" gradientUnits="userSpaceOnUse">
<stop stop-color="#D4BBFF"/>
<stop offset="1" stop-color="#FFF6BF"/>
</linearGradient>
<linearGradient id="paint1_linear_30_5" x1="226.471" y1="373.848" x2="192.639" y2="386.652" gradientUnits="userSpaceOnUse">
<stop stop-color="#FDC1C5"/>
<stop offset="1" stop-color="#FFF6BF"/>
</linearGradient>
<linearGradient id="paint2_linear_30_5" x1="218.322" y1="56.1018" x2="32.9711" y2="112.348" gradientUnits="userSpaceOnUse">
<stop stop-color="#FDC1C5"/>
<stop offset="1" stop-color="#AEEAF3"/>
</linearGradient>
<linearGradient id="paint3_linear_30_5" x1="25.6076" y1="343.767" x2="241.596" y2="389.342" gradientUnits="userSpaceOnUse">
<stop stop-color="#AEEAF3"/>
<stop offset="1" stop-color="#D4BBFF"/>
</linearGradient>
</defs>
</svg>
